<svg width="181" height="37" fill="none" xmlns="http://www.w3.org/2000/svg"><path d="M27.21 16.238a4.875 4.875 0 0 0-1.395 3.906l-.024-.024a5.792 5.792 0 0 1-6.258 6.258l.024.024a4.905 4.905 0 1 0 4.428 4.424l.025.024a5.793 5.793 0 0 1 6.259-6.258l-.026-.024a4.895 4.895 0 1 0-3.029-8.33h-.004Z" fill="#252525"/><path d="m17.374 23.259-.025-.024a4.844 4.844 0 0 0 5.302-5.3l.026.025a5.793 5.793 0 0 1 6.258-6.259l-.025-.024a4.903 4.903 0 1 0-4.424-4.424l-.024-.025a5.792 5.792 0 0 1-6.259 6.258l.024.026a4.842 4.842 0 0 0-5.302 5.299l-.024-.024a5.795 5.795 0 0 1-6.259 6.258l.024.024a4.903 4.903 0 1 0 4.424 4.424l.025.024a5.792 5.792 0 0 1 6.259-6.258Z" fill="#252525"/><path d="M8.438 20.582a4.87 4.87 0 0 0 1.393-3.905l.026.024a5.793 5.793 0 0 1 6.261-6.258l-.025-.024a4.902 4.902 0 1 0-4.424-4.425l-.024-.024a5.791 5.791 0 0 1-6.259 6.26l.024.023a4.894 4.894 0 1 0 3.03 8.33h-.002ZM49.74 7.284h3.96v19.27h-3.96V7.284Zm6.203 12.672a6.996 6.996 0 1 1 6.996 6.968 6.916 6.916 0 0 1-6.996-6.968Zm10.032 0a3.038 3.038 0 1 0-3.036 3.121 2.963 2.963 0 0 0 3.036-3.121Zm19.743-6.6v12.533c0 4.435-3.459 6.31-6.97 6.31a6.75 6.75 0 0 1-6.255-3.2l3.378-1.954a3.017 3.017 0 0 0 3.01 1.663 2.63 2.63 0 0 0 2.982-2.824v-1.207a4.689 4.689 0 0 1-3.854 1.716 6.708 6.708 0 0 1 0-13.41 4.69 4.69 0 0 1 3.854 1.717v-1.347l3.855.003Zm-3.853 6.334a3.2 3.2 0 1 0-3.194 3.067 2.988 2.988 0 0 0 3.194-3.067Zm6.095.266a6.996 6.996 0 1 1 6.997 6.968 6.915 6.915 0 0 1-6.996-6.968Zm10.033 0a3.038 3.038 0 1 0-3.036 3.121 2.962 2.962 0 0 0 3.036-3.121Zm5.806-10.138a2.377 2.377 0 1 1 4.572.91 2.377 2.377 0 0 1-2.196 1.466 2.4 2.4 0 0 1-2.376-2.376Zm.4 3.538h3.962v13.2h-3.967l.005-13.2Zm21.06 6.6a6.619 6.619 0 0 1-1.705 4.796 6.638 6.638 0 0 1-4.604 2.172 4.951 4.951 0 0 1-3.932-1.611v6.521h-3.96V13.356h3.96v1.24a4.955 4.955 0 0 1 3.932-1.61 6.623 6.623 0 0 1 5.936 4.4c.293.824.42 1.697.373 2.57Zm-3.96 0a3.134 3.134 0 0 0-1.992-2.846 3.143 3.143 0 0 0-4.234 2.34 3.14 3.14 0 0 0 3.086 3.726 3.012 3.012 0 0 0 3.14-3.22Zm16.18 2.638c0 3.036-2.638 4.33-5.489 4.33a5.779 5.779 0 0 1-5.676-3.142l3.431-1.953a2.168 2.168 0 0 0 2.24 1.557c.949 0 1.425-.29 1.425-.817 0-1.453-6.495-.687-6.495-5.253 0-2.879 2.43-4.33 5.175-4.33a5.773 5.773 0 0 1 5.147 2.824l-3.379 1.822a1.918 1.918 0 0 0-1.768-1.162c-.687 0-1.109.267-1.109.739.005 1.505 6.498.501 6.498 5.385Zm14.466-9.238v13.2h-3.96v-1.242a4.523 4.523 0 0 1-3.774 1.611c-2.666 0-4.933-1.9-4.933-5.467v-8.102h3.96v7.522a2.18 2.18 0 0 0 1.371 2.254c.293.116.609.166.925.146 1.452 0 2.455-.844 2.455-2.718v-7.2l3.956-.004Zm22.706 5.094v8.104h-3.96v-7.761c0-1.32-.633-2.164-1.9-2.164-1.32 0-2.06.924-2.06 2.481v7.444h-3.958v-7.761c0-1.32-.634-2.164-1.902-2.164-1.32 0-2.058.924-2.058 2.481v7.444h-3.96v-13.2h3.96v1.214a4.05 4.05 0 0 1 3.537-1.583 3.933 3.933 0 0 1 3.457 1.741 4.349 4.349 0 0 1 3.828-1.741c3.031.001 5.016 2.165 5.016 5.465Zm3.35-5.176A2.939 2.939 0 1 0 178 7.397a2.939 2.939 0 0 0 .001 5.877Z" fill="#252525"/></svg>