<svg width="105" height="41" fill="none" xmlns="http://www.w3.org/2000/svg"><path d="M48.554 35.65h2.734V25.336h-2.734V35.65Zm0-11.923h2.734v-2.453h-2.734v2.453Zm4.496 15.301h2.734v-4.544h.04c.584.884 1.529 1.468 2.976 1.468 2.654 0 4.464-2.111 4.464-5.45 0-3.216-1.75-5.448-4.484-5.448-1.407 0-2.373.664-3.036 1.568h-.06v-1.286H53.05v13.692Zm5.167-5.348c-1.628 0-2.493-1.227-2.493-3.097 0-1.85.684-3.317 2.393-3.317 1.688 0 2.372 1.367 2.372 3.317 0 1.95-.885 3.097-2.272 3.097Zm10.501 2.272c2.574 0 4.343-1.247 4.343-3.318 0-2.413-1.91-2.895-3.639-3.257-1.468-.302-2.835-.382-2.835-1.267 0-.744.704-1.146 1.77-1.146 1.165 0 1.87.402 1.99 1.508h2.473c-.201-2.07-1.71-3.418-4.423-3.418-2.353 0-4.203 1.066-4.203 3.298 0 2.251 1.81 2.754 3.66 3.116 1.407.281 2.714.382 2.714 1.367 0 .724-.684 1.186-1.89 1.186-1.226 0-2.07-.522-2.252-1.709h-2.533c.16 2.192 1.83 3.64 4.825 3.64Zm14.725-.302V25.336h-2.735v5.951c0 1.367-.784 2.332-2.07 2.332-1.167 0-1.71-.663-1.71-1.87v-6.413h-2.714v6.876c0 2.252 1.287 3.72 3.579 3.72 1.448 0 2.252-.543 2.956-1.488h.06v1.206h2.634Zm1.768 0h2.735v-5.992c0-1.367.744-2.251 1.85-2.251 1.005 0 1.588.603 1.588 1.769v6.474h2.734v-5.992c0-1.367.704-2.251 1.85-2.251 1.005 0 1.588.603 1.588 1.769v6.474h2.735v-6.936c0-2.252-1.227-3.66-3.398-3.66-1.307 0-2.393.684-3.096 1.81h-.04c-.503-1.086-1.549-1.81-2.856-1.81-1.427 0-2.432.724-2.995 1.669h-.06v-1.387H85.21V35.65ZM48.594 17.984h2.734V3.608h-2.734v14.376Zm9.42.302c3.197 0 5.389-2.373 5.389-5.45 0-3.075-2.192-5.448-5.389-5.448s-5.388 2.373-5.388 5.449c0 3.076 2.191 5.449 5.388 5.449Zm0-2.091c-1.689 0-2.614-1.348-2.614-3.358s.925-3.378 2.614-3.378c1.669 0 2.614 1.367 2.614 3.378 0 2.01-.945 3.358-2.614 3.358Zm11.204 5.308c1.528 0 2.855-.362 3.72-1.167.763-.703 1.226-1.688 1.226-3.136V7.67H71.53v1.085h-.04c-.624-.864-1.569-1.367-2.856-1.367-2.613 0-4.463 1.97-4.463 5.047 0 3.116 2.252 4.926 4.544 4.926 1.307 0 2.09-.523 2.694-1.207h.06v1.126c0 1.408-.743 2.152-2.292 2.152-1.266 0-1.85-.503-2.07-1.146h-2.715c.282 2.01 2.01 3.217 4.826 3.217Zm-.04-6.334c-1.408 0-2.333-1.025-2.333-2.774 0-1.73.925-2.815 2.312-2.815 1.649 0 2.453 1.287 2.453 2.794 0 1.528-.704 2.795-2.433 2.795Zm11.632 3.117c3.197 0 5.388-2.373 5.388-5.45 0-3.075-2.191-5.448-5.388-5.448s-5.388 2.373-5.388 5.449c0 3.076 2.191 5.449 5.388 5.449Zm0-2.091c-1.689 0-2.614-1.348-2.614-3.358s.925-3.378 2.614-3.378c1.669 0 2.614 1.367 2.614 3.378 0 2.01-.945 3.358-2.614 3.358Zm7.786-2.152h11.822v-2.352H88.595v2.352Zm12.689 9.541c0-.463.375-.838.838-.838h1.675a.838.838 0 1 1 0 1.675h-1.675a.838.838 0 0 1-.838-.837Z" fill="#252525"/><path fill-rule="evenodd" clip-rule="evenodd" d="M20.94.412c11.045 0 20 8.954 20 20s-8.955 20-20 20c-11.046 0-20-8.954-20-20s8.954-20 20-20Zm-.724 1.496c-2.281.322-4.454 2.155-6.14 5.221-.49.89-.931 1.872-1.316 2.933 2.293-.576 4.813-.916 7.456-.968V1.908Zm-9.146 8.635a23.086 23.086 0 0 1 1.739-4.11c.836-1.52 1.828-2.833 2.946-3.841A18.593 18.593 0 0 0 3.119 15.228c1.008-1.118 2.32-2.11 3.84-2.947a23.087 23.087 0 0 1 4.111-1.738Zm-.48 1.69c-.577 2.293-.916 4.812-.969 7.456H2.436c.32-2.282 2.154-4.454 5.22-6.14.89-.49 1.873-.931 2.934-1.316Zm.477 7.456c.06-2.885.475-5.594 1.162-7.987 2.394-.687 5.102-1.102 7.987-1.162v3.123a10.64 10.64 0 0 1-6.027 6.026h-3.122Zm-1.446 1.446H2.436c.32 2.281 2.154 4.454 5.22 6.14.89.49 1.873.931 2.934 1.316-.577-2.293-.916-4.813-.969-7.456Zm2.608 7.987c-.687-2.393-1.102-5.102-1.162-7.987h3.122a10.64 10.64 0 0 1 6.027 6.026v3.123c-2.885-.06-5.593-.475-7.987-1.162Zm-1.159 1.16a23.087 23.087 0 0 1-4.11-1.74c-1.52-.836-2.833-1.828-3.841-2.946a18.593 18.593 0 0 0 12.636 12.636c-1.118-1.008-2.11-2.32-2.946-3.84a23.086 23.086 0 0 1-1.739-4.11Zm9.146 8.633c-2.281-.32-4.454-2.154-6.14-5.22-.49-.89-.931-1.873-1.316-2.933 2.293.576 4.813.915 7.456.968v7.185Zm5.907-.683c1.118-1.008 2.11-2.32 2.947-3.84a23.093 23.093 0 0 0 1.738-4.11 23.09 23.09 0 0 0 4.11-1.74c1.52-.836 2.833-1.828 3.841-2.946a18.593 18.593 0 0 1-12.636 12.636Zm2.995-7.47a20.824 20.824 0 0 1-1.315 2.932c-1.687 3.067-3.86 4.9-6.14 5.221V31.73c2.643-.053 5.162-.392 7.455-.968Zm2.17-2.171a20.824 20.824 0 0 0 2.934-1.316c3.066-1.686 4.9-3.858 5.22-6.14h-7.185c-.052 2.643-.392 5.163-.968 7.456Zm-.477-7.456c-.06 2.885-.475 5.593-1.162 7.987-2.393.687-5.102 1.102-7.987 1.162v-3.12a10.64 10.64 0 0 1 6.028-6.03h3.121Zm1.446-1.446h7.186c-.322-2.282-2.155-4.454-5.221-6.14-.89-.49-1.872-.931-2.933-1.316.576 2.293.916 4.812.968 7.456Zm-2.608-7.987c.687 2.393 1.103 5.102 1.162 7.987H27.69a10.64 10.64 0 0 1-6.028-6.029v-3.12c2.885.06 5.594.475 7.987 1.162Zm1.16-1.16a23.09 23.09 0 0 1 4.11 1.74c1.52.835 2.832 1.828 3.84 2.946A18.593 18.593 0 0 0 26.123 2.592c1.118 1.008 2.11 2.32 2.947 3.84a23.094 23.094 0 0 1 1.738 4.11Zm-9.147-8.634c2.282.322 4.454 2.155 6.14 5.221.49.89.931 1.872 1.316 2.933-2.293-.576-4.812-.916-7.456-.968V1.908Z" fill="#252525"/></svg>