<svg width="135" height="28" fill="none" xmlns="http://www.w3.org/2000/svg"><path d="M43.731 22.866a3.028 3.028 0 0 1-1.908-.549 1.784 1.784 0 0 1-.72-1.497V10.226a.298.298 0 0 1 .331-.331h1.92c.217 0 .32.114.32.331v9.771c0 .435.194.652.595.652.17.007.339-.012.502-.057.229 0 .355.068.366.274l.172 1.429a.295.295 0 0 1-.153.32.297.297 0 0 1-.122.034c-.42.139-.86.212-1.303.217Zm10.8-1.223a5.382 5.382 0 0 1-6.857 0 4.572 4.572 0 0 1 0-6.434 5.406 5.406 0 0 1 6.857 0 4.64 4.64 0 0 1 0 6.423v.011Zm-5.051-1.509a2.434 2.434 0 0 0 3.269 0 2.56 2.56 0 0 0 0-3.36 2.435 2.435 0 0 0-3.269 0 2.56 2.56 0 0 0 0 3.36Zm16.914-5.862c.217 0 .32.114.32.331v8.194a3.725 3.725 0 0 1-1.268 2.937 4.8 4.8 0 0 1-3.326 1.143 5.348 5.348 0 0 1-3.097-.857 3.425 3.425 0 0 1-1.497-2.286c0-.228 0-.331.308-.331h1.92a.422.422 0 0 1 .377.263c.125.347.373.636.697.811.396.204.836.306 1.28.297a2.02 2.02 0 0 0 1.475-.525 1.943 1.943 0 0 0 .537-1.429v-.72a3.83 3.83 0 0 1-2.377.743 4.436 4.436 0 0 1-3.246-1.246 4.572 4.572 0 0 1 0-6.354 4.47 4.47 0 0 1 3.246-1.234 3.84 3.84 0 0 1 2.434.788v-.183a.296.296 0 0 1 .19-.313.298.298 0 0 1 .13-.018l1.897-.011Zm-4.434 6.537a2.01 2.01 0 0 0 1.566-.675 2.8 2.8 0 0 0 0-3.428 2.001 2.001 0 0 0-1.555-.663 2.055 2.055 0 0 0-1.588.674 2.423 2.423 0 0 0-.617 1.715 2.47 2.47 0 0 0 .605 1.702 2.07 2.07 0 0 0 1.589.675Zm14.617.834a5.406 5.406 0 0 1-6.857 0 4.651 4.651 0 0 1 0-6.434 5.417 5.417 0 0 1 6.857 0 4.64 4.64 0 0 1 0 6.422v.012Zm-5.063-1.509a2.284 2.284 0 0 0 1.646.629 2.287 2.287 0 0 0 1.634-.629 2.594 2.594 0 0 0 0-3.36 2.285 2.285 0 0 0-1.634-.628 2.287 2.287 0 0 0-1.646.628 2.595 2.595 0 0 0 0 3.36Zm10.48-7.805a1.657 1.657 0 0 1-2.183 0 1.384 1.384 0 0 1 0-2.012 1.692 1.692 0 0 1 2.183 0 1.382 1.382 0 0 1 0 2.012Zm.24 10.537c-.68.033-1.35-.16-1.908-.549a1.804 1.804 0 0 1-.709-1.497v-6.217a.296.296 0 0 1 .331-.331h1.92c.218 0 .32.114.32.331v5.394c0 .435.195.652.583.652a1.77 1.77 0 0 0 .515-.057c.228 0 .354.068.365.274l.172 1.429a.295.295 0 0 1-.153.32.297.297 0 0 1-.121.034c-.425.14-.868.213-1.315.217Zm8.652-8.869a4.48 4.48 0 0 1 3.268 1.235 4.686 4.686 0 0 1 0 6.388 4.442 4.442 0 0 1-3.268 1.246 3.93 3.93 0 0 1-2.389-.743v4.126c0 .217-.114.32-.331.32h-1.92a.274.274 0 0 1-.32-.32v-9.372a.596.596 0 0 0-.675-.674h-.377c-.251 0-.377-.091-.377-.274V14.58a.365.365 0 0 1 .263-.377 3.429 3.429 0 0 1 1.234-.206 2.114 2.114 0 0 1 2.069 1.143 3.855 3.855 0 0 1 2.823-1.143Zm-1.783 6.137a2.183 2.183 0 0 0 3.154 0c.43-.478.655-1.106.629-1.748a2.434 2.434 0 0 0-.629-1.749 2.183 2.183 0 0 0-3.154 0 2.526 2.526 0 0 0-.606 1.749 2.56 2.56 0 0 0 .606 1.748Zm11.703 2.732a5.509 5.509 0 0 1-2.938-.709 2.79 2.79 0 0 1-1.325-2.022c0-.229.08-.343.331-.343h1.68a.435.435 0 0 1 .377.251c.24.617.869.926 1.875.926.35.016.7-.055 1.017-.206a.66.66 0 0 0 .388-.56c0-.297-.183-.503-.548-.64a6.187 6.187 0 0 0-1.337-.286 12.698 12.698 0 0 1-1.6-.285 2.628 2.628 0 0 1-1.338-.766 2.446 2.446 0 0 1 .492-3.543 4.71 4.71 0 0 1 2.766-.731 5.054 5.054 0 0 1 2.697.674 2.552 2.552 0 0 1 1.257 1.794c0 .229-.103.343-.309.343H102.6a.353.353 0 0 1-.343-.206 1.144 1.144 0 0 0-.594-.605 2.013 2.013 0 0 0-.983-.229 1.992 1.992 0 0 0-.972.194.573.573 0 0 0-.365.526.732.732 0 0 0 .548.674c.439.166.895.28 1.36.343.535.07 1.065.17 1.589.297a2.63 2.63 0 0 1 1.337.766 2.162 2.162 0 0 1 .56 1.566 2.288 2.288 0 0 1-1.063 1.988 4.992 4.992 0 0 1-2.868.789Zm16.011-.571a.313.313 0 0 1-.004.121.323.323 0 0 1-.143.193.315.315 0 0 1-.116.04 4.39 4.39 0 0 1-1.291.217 2.533 2.533 0 0 1-2.286-.994 4.136 4.136 0 0 1-2.914.994 3.539 3.539 0 0 1-2.675-1.04 3.753 3.753 0 0 1-1.017-2.754v-4.469c0-.217.103-.331.32-.331h1.92c.217 0 .32.114.32.331v4.126c-.02.514.155 1.017.492 1.406a1.712 1.712 0 0 0 1.314.537 1.895 1.895 0 0 0 1.372-.503 1.836 1.836 0 0 0 .514-1.36v-4.206c0-.217.103-.331.32-.331h1.943c.217 0 .32.114.32.331v5.383c0 .446.194.663.571.663a1.81 1.81 0 0 0 .526-.057.294.294 0 0 1 .255.046c.036.026.066.06.088.1.02.04.032.083.034.128l.137 1.429Zm18.16-.001c.01.041.011.084.003.125a.299.299 0 0 1-.051.115.276.276 0 0 1-.095.081.277.277 0 0 1-.12.034 4.427 4.427 0 0 1-1.314.217 3.053 3.053 0 0 1-1.909-.549 1.785 1.785 0 0 1-.765-1.497v-2.686a2.026 2.026 0 0 0-.48-1.405 1.624 1.624 0 0 0-1.28-.537 1.436 1.436 0 0 0-1.143.502 2.036 2.036 0 0 0-.435 1.349v4.217c0 .217-.102.332-.32.332h-1.931a.297.297 0 0 1-.331-.332v-4.126a2.117 2.117 0 0 0-.446-1.405 1.488 1.488 0 0 0-1.143-.537 1.657 1.657 0 0 0-1.257.502 1.889 1.889 0 0 0-.469 1.349v4.217a.3.3 0 0 1-.013.133.3.3 0 0 1-.184.185.305.305 0 0 1-.134.014h-1.863c-.217 0-.32-.115-.32-.332v-5.383a.588.588 0 0 0-.401-.65.596.596 0 0 0-.273-.024h-.377c-.252 0-.378-.091-.378-.274V14.58a.371.371 0 0 1 .263-.377 3.436 3.436 0 0 1 1.235-.206 2.15 2.15 0 0 1 2.034 1.052 3.855 3.855 0 0 1 2.903-1.052 3.28 3.28 0 0 1 2.708 1.212 3.776 3.776 0 0 1 2.995-1.211 3.606 3.606 0 0 1 2.708 1.04 3.716 3.716 0 0 1 1.017 2.754v2.205c0 .435.195.652.56.652.177.008.355-.011.526-.057.237 0 .362.091.377.274l.103 1.428ZM.966 12.786a15.646 15.646 0 0 1 30.365 0H29.96a11.074 11.074 0 0 0-6.48 1.977c-.11.08-.224.152-.343.217h-.16a3.253 3.253 0 0 1-.343-.217 11.622 11.622 0 0 0-12.971 0c-.11.08-.224.152-.343.217h-.16a3.26 3.26 0 0 1-.343-.217 11.074 11.074 0 0 0-6.48-1.977H.966Zm26.525 7.166a3.851 3.851 0 0 1 2.469-.812h1.84v-3.668h-1.84a7.291 7.291 0 0 0-4.377 1.394 4.16 4.16 0 0 1-4.937 0 7.771 7.771 0 0 0-8.88 0 4.16 4.16 0 0 1-4.938 0 7.29 7.29 0 0 0-4.434-1.394H.497v3.668h1.84a3.852 3.852 0 0 1 2.469.812 7.749 7.749 0 0 0 8.868 0 3.875 3.875 0 0 1 2.469-.812 3.828 3.828 0 0 1 2.468.812 7.77 7.77 0 0 0 8.88 0Zm0 6.56a3.851 3.851 0 0 1 2.469-.812h1.84v-3.668h-1.84a7.291 7.291 0 0 0-4.377 1.394 4.16 4.16 0 0 1-4.937 0 7.771 7.771 0 0 0-8.88 0 4.16 4.16 0 0 1-4.938 0 7.292 7.292 0 0 0-4.434-1.394H.497V25.7h1.84a3.852 3.852 0 0 1 2.469.812 7.749 7.749 0 0 0 8.868 0 3.875 3.875 0 0 1 2.469-.812 3.828 3.828 0 0 1 2.468.812 7.77 7.77 0 0 0 8.88 0Z" fill="#252525"/></svg>