<svg width="151" height="37" fill="none" xmlns="http://www.w3.org/2000/svg"><path fill-rule="evenodd" clip-rule="evenodd" d="m19.65.59-.02-.039h-8.941L.095 18.71l7.272 12.722.008-.015 2.75 4.76 21.02.095 7.383-12.658h-.049l2.727-4.724L30.776.638 19.65.589Zm6.917 12.108h.056L21.367 3.57l7.68.034 8.73 15.279-2.733 4.733-7.16.003 2.496-4.324-3.813-6.597ZM17.83 3.525l3.583 6.2h-4.962L7.956 24.457l-.58 1-3.847-6.732 8.867-15.2h5.434Zm-3.446 15.737 3.785-6.564h4.963l3.814 6.598-2.497 4.325-7.546.005-2.519-4.364Zm-5.293 9.18 1.44-2.498 2.141-3.699 2.514 4.355 7.545-.004-.012.02 10.608.013-3.885 6.662-17.597-.079-2.754-4.77Z" fill="#252525"/><path d="M95.36 11.433a1.851 1.851 0 0 0 1.846-1.867c0-1.04-.828-1.845-1.846-1.845-1.039 0-1.866.806-1.866 1.845 0 1.04.827 1.867 1.866 1.867Zm-1.654 12.26h3.288V13.087h-3.288v10.606Zm5.201 5.091h3.225v-6.151c.615.806 2.015 1.357 3.479 1.357 3.16 0 5.069-2.418 4.985-5.77-.086-3.415-2.058-5.472-5.007-5.472-1.506 0-2.927.657-3.521 1.633l-.17-1.294h-2.99v15.697Zm3.288-10.394c0-1.59 1.061-2.651 2.588-2.651 1.549 0 2.525 1.082 2.525 2.651 0 1.57-.976 2.652-2.525 2.652-1.527 0-2.588-1.06-2.588-2.652Zm8.749 1.952c.084 2.142 1.782 3.627 4.454 3.627 2.567 0 4.349-1.358 4.349-3.542 0-1.57-.933-2.61-2.673-3.034l-1.888-.466c-.679-.17-1.103-.34-1.103-.891 0-.552.445-.912 1.103-.912.742 0 1.23.487 1.209 1.209h2.949c-.085-2.206-1.761-3.585-4.095-3.585-2.354 0-4.114 1.4-4.114 3.521 0 1.421.784 2.588 2.884 3.14l1.867.487c.551.149.785.403.785.764 0 .53-.488.87-1.315.87-.954 0-1.463-.446-1.463-1.188h-2.949Zm13.803 3.628c1.293 0 2.588-.595 3.246-1.464l.212 1.187h3.075V13.087h-3.266v5.515c0 1.591-.467 2.461-1.974 2.461-1.166 0-1.93-.53-1.93-2.503v-5.473h-3.266v6.661c0 2.524 1.4 4.221 3.903 4.221Zm11.713-.277v-5.79c0-1.782.955-2.291 1.888-2.291 1.04 0 1.719.636 1.719 1.951v6.13h3.223v-5.79c0-1.804.934-2.313 1.867-2.313 1.04 0 1.74.637 1.74 1.973v6.13h3.181v-6.936c0-2.418-1.272-4.03-4.009-4.03-1.526 0-2.779.742-3.33 1.887-.636-1.145-1.739-1.887-3.5-1.887-1.166 0-2.249.53-2.884 1.378l-.128-1.018h-3.054v10.606h3.287ZM50.558 7.998H47.08v15.697h9.63V20.62h-6.152V7.998Zm6.484 10.372c0 3.352 2.248 5.58 5.642 5.58 3.373 0 5.622-2.228 5.622-5.58 0-3.35-2.249-5.6-5.622-5.6-3.393 0-5.642 2.25-5.642 5.6Zm3.288-.02c0-1.591.933-2.652 2.354-2.652 1.4 0 2.334 1.06 2.334 2.652 0 1.612-.934 2.672-2.334 2.672-1.42 0-2.354-1.06-2.354-2.672Zm8.501-.15c0 3.204 2.079 5.368 5.028 5.368 1.42 0 2.651-.51 3.266-1.337v1.464c0 1.464-.912 2.44-2.524 2.44-1.442 0-2.44-.68-2.503-1.889h-3.31c.298 2.907 2.546 4.858 5.622 4.858 3.627 0 5.918-2.354 5.918-6.088V13.09H77.38l-.17 1.082c-.594-.87-1.845-1.443-3.288-1.443-2.97 0-5.09 2.228-5.09 5.473Zm3.31-.084c0-1.527 1.017-2.545 2.311-2.545 1.507 0 2.61.997 2.61 2.545 0 1.549-1.082 2.61-2.588 2.61-1.294 0-2.334-1.061-2.334-2.61Zm9.139.254c0 3.352 2.249 5.58 5.643 5.58 3.372 0 5.62-2.228 5.62-5.58 0-3.35-2.248-5.6-5.62-5.6-3.394 0-5.643 2.25-5.643 5.6Zm3.288-.02c0-1.591.933-2.652 2.355-2.652 1.4 0 2.333 1.06 2.333 2.652 0 1.612-.933 2.672-2.333 2.672-1.422 0-2.355-1.06-2.355-2.672Z" fill="#252525"/></svg>