<svg width="145" height="35" fill="none" xmlns="http://www.w3.org/2000/svg"><path d="M41.214 10.852h3.669V25.71h-3.669V10.852Zm5.132 9.269c0-3.68 2.286-5.886 5.714-5.886 3.429 0 5.714 2.206 5.714 5.886s-2.205 5.908-5.714 5.908c-3.509 0-5.714-2.148-5.714-5.908Zm7.794 0c0-2.023-.788-3.212-2.046-3.212-1.257 0-2.034 1.143-2.034 3.212 0 2.068.777 3.2 2.034 3.2 1.258 0 2.069-1.132 2.069-3.189l-.023-.011Zm5.097 6.354h3.543a1.897 1.897 0 0 0 1.989 1.143c1.405 0 2.137-.755 2.137-1.874v-2.058h.011a3.509 3.509 0 0 1-3.428 2c-2.686 0-4.469-2.045-4.469-5.565 0-3.52 1.703-5.715 4.572-5.715a3.508 3.508 0 0 1 3.428 2.16h-.103v-2.068h3.635v11.131c0 2.686-2.378 4.366-5.875 4.366-3.177-.012-5.211-1.463-5.417-3.509l-.023-.011Zm7.68-6.354c0-1.795-.823-2.926-2.126-2.926-1.302 0-2.102 1.143-2.102 2.926 0 1.783.788 2.834 2.102 2.834 1.315 0 2.126-.971 2.126-2.834Zm5.086 0c0-3.68 2.286-5.886 5.714-5.886 3.429 0 5.715 2.206 5.715 5.886s-2.218 5.908-5.715 5.908-5.691-2.148-5.691-5.908h-.023Zm7.794 0c0-2.023-.8-3.212-2.046-3.212-1.245 0-2.034 1.143-2.034 3.212 0 2.068.777 3.2 2.034 3.2 1.258 0 2.07-1.132 2.07-3.189l-.024-.011Zm5.12-8.332a1.874 1.874 0 1 1 1.874 1.795 1.807 1.807 0 0 1-1.85-1.783l-.024-.012Zm0 2.697h3.715v11.269h-3.658l-.057-11.269Zm17.075 5.635c0 3.668-1.646 5.794-4.446 5.794a3.509 3.509 0 0 1-3.429-2.091h-.068v5.554H90.38V14.52h3.646v2.011h.068a3.531 3.531 0 0 1 3.429-2.171c2.88-.023 4.537 2.091 4.537 5.771l-.068-.011Zm-3.738 0c0-1.783-.834-2.938-2.125-2.938-1.292 0-2.103 1.143-2.115 2.938-.011 1.794.823 2.925 2.115 2.925 1.291 0 2.194-1.063 2.194-2.914l-.069-.011Zm10-5.897c3.075 0 4.983 1.451 5.006 3.782h-3.348c0-.811-.675-1.314-1.68-1.314-1.006 0-1.486.389-1.486.971 0 .583.423.766 1.268.938l2.355.48c2.285.48 3.2 1.394 3.2 3.097 0 2.285-2.115 3.84-5.257 3.84-3.143 0-5.189-1.509-5.338-3.806h3.555c.103.834.765 1.326 1.84 1.326 1.074 0 1.577-.343 1.577-.949 0-.605-.343-.708-1.223-.891l-2.126-.446c-2.205-.468-3.36-1.623-3.36-3.348.069-2.24 1.989-3.67 5.086-3.67l-.069-.01Zm17.6 11.52H122.3v-2.115h-.069a3.224 3.224 0 0 1-3.279 2.343 3.921 3.921 0 0 1-4.035-4.24v-7.234h3.669v6.446c0 1.325.697 2.045 1.84 2.045a1.88 1.88 0 0 0 1.409-.655 1.865 1.865 0 0 0 .431-1.493v-6.343h3.657l-.069 11.246Zm1.772-11.258h3.565v2.172h.081a3.263 3.263 0 0 1 3.211-2.377 2.922 2.922 0 0 1 3.131 2.388h.16a3.427 3.427 0 0 1 3.429-2.388 3.56 3.56 0 0 1 3.489 2.353c.172.472.24.975.202 1.475v7.646h-3.691v-6.709c0-1.142-.537-1.782-1.577-1.782a1.603 1.603 0 0 0-1.558 1.135 1.62 1.62 0 0 0-.054.682v6.674h-3.497v-6.743c0-1.143-.56-1.748-1.565-1.748a1.634 1.634 0 0 0-1.635 1.84v6.65h-3.668l-.023-11.268Zm-93.669-2.663A11.292 11.292 0 0 0 14.346 4.19H.083v30.103h30.114v-14.07a11.281 11.281 0 0 0 3.76-8.4Zm-5.794 0a5.509 5.509 0 1 1-11.017.023 5.509 5.509 0 0 1 11.017-.023Zm-3.76 16.675H5.877V9.983h5.646a10.918 10.918 0 0 0-.171 1.84 11.314 11.314 0 0 0 11.302 11.303 11.138 11.138 0 0 0 1.749-.148v5.52Z" fill="#252525"/></svg>