<svg width="50" height="51" fill="none" xmlns="http://www.w3.org/2000/svg"><path d="M24.97.412c3.465 0 6.71.657 9.737 1.971s5.675 3.097 7.945 5.347c2.27 2.25 4.063 4.888 5.377 7.915S50 21.917 50 25.382s-.657 6.71-1.971 9.737c-1.315 3.027-3.107 5.675-5.377 7.945-2.27 2.27-4.918 4.062-7.945 5.377-3.026 1.314-6.272 1.97-9.737 1.97s-6.71-.656-9.737-1.97c-3.027-1.315-5.665-3.107-7.915-5.377-2.25-2.27-4.032-4.918-5.347-7.945C.657 32.093 0 28.847 0 25.382s.657-6.71 1.971-9.737C3.286 12.618 5.068 9.98 7.318 7.73c2.25-2.25 4.888-4.033 7.915-5.347S21.505.412 24.97.412Zm0 39.068c1.952 0 3.784-.368 5.496-1.105a14.208 14.208 0 0 0 4.48-3.017 14.21 14.21 0 0 0 3.017-4.48c.737-1.713 1.105-3.545 1.105-5.496 0-1.951-.368-3.773-1.105-5.466a14.306 14.306 0 0 0-3.017-4.45 14.21 14.21 0 0 0-4.48-3.017c-1.713-.737-3.544-1.105-5.496-1.105-1.912 0-3.723.368-5.436 1.105a14.21 14.21 0 0 0-4.48 3.017 14.306 14.306 0 0 0-3.017 4.45c-.737 1.693-1.105 3.515-1.105 5.466s.368 3.783 1.105 5.496a14.21 14.21 0 0 0 3.017 4.48 14.208 14.208 0 0 0 4.48 3.017 13.609 13.609 0 0 0 5.436 1.105Zm1.195-13.68a18.618 18.618 0 0 0-5.526 2.927 19.22 19.22 0 0 0-4.271 4.6c-1.872-2.07-2.907-4.54-3.106-7.407.318.04.607.06.866.06h.806c3.664 0 7.169-.618 10.514-1.852l.358.836.359.836Zm1.493-2.569a28.738 28.738 0 0 0 6.99-4.42c1.354 1.951 2.03 4.122 2.03 6.511a19.146 19.146 0 0 0-4.42-.537c-1.314 0-2.589.139-3.823.418a53.18 53.18 0 0 1-.358-.986 8.612 8.612 0 0 0-.419-.985ZM18.16 34.94a16.047 16.047 0 0 1 3.823-4.271 16.587 16.587 0 0 1 4.959-2.659 36.272 36.272 0 0 1 1.075 4.152c.279 1.414.498 2.858.657 4.331-1.155.398-2.39.597-3.704.597-2.509 0-4.779-.716-6.81-2.15Zm11.052-7.527c1.115-.2 2.13-.299 3.046-.299 1.474 0 2.867.2 4.182.598a11.502 11.502 0 0 1-1.912 4.48 11.316 11.316 0 0 1-3.584 3.286 38.388 38.388 0 0 0-1.732-8.065Zm3.942-10.394a37.528 37.528 0 0 1-3.166 2.3 24.796 24.796 0 0 1-3.345 1.822 51.178 51.178 0 0 0-2.18-3.614 41.216 41.216 0 0 0-2.54-3.435 10.83 10.83 0 0 1 3.047-.418c1.553 0 3.027.288 4.42.866a12.003 12.003 0 0 1 3.764 2.479Zm-8.722 5.018a28.5 28.5 0 0 1-9.498 1.613h-.806l-.687-.06a11.547 11.547 0 0 1 2.03-5.018 11.558 11.558 0 0 1 4.123-3.584 37.48 37.48 0 0 1 4.838 7.049Z" fill="#fff"/></svg>