<svg width="30" height="31" fill="none" xmlns="http://www.w3.org/2000/svg"><path d="M14.982.412c2.074 0 4.023.393 5.846 1.18a15.184 15.184 0 0 1 4.774 3.218 15.239 15.239 0 0 1 3.218 4.756c.787 1.811 1.18 3.754 1.18 5.828 0 2.074-.393 4.023-1.18 5.847a15.181 15.181 0 0 1-3.218 4.773 15.182 15.182 0 0 1-4.774 3.218c-1.823.787-3.772 1.18-5.846 1.18-2.074 0-4.017-.393-5.828-1.18a15.239 15.239 0 0 1-4.756-3.218 15.182 15.182 0 0 1-3.218-4.773C.393 19.416 0 17.468 0 15.393c0-2.074.393-4.017 1.18-5.828A15.24 15.24 0 0 1 4.398 4.81a15.24 15.24 0 0 1 4.756-3.218c1.811-.787 3.754-1.18 5.828-1.18Zm5.65 6.544h-3.183a4.49 4.49 0 0 0-1.716.321 4.652 4.652 0 0 0-1.377.859 3.88 3.88 0 0 0-.911 1.215 3.15 3.15 0 0 0-.322 1.36v1.894h-2.825v3.719h2.825v7.509h3.754v-7.51h2.79v-3.718h-2.79v-.965a.8.8 0 0 1 .34-.68c.226-.167.423-.25.59-.25h2.825V6.956Z" fill="#252525"/></svg>