<svg width="50" height="51" fill="none" xmlns="http://www.w3.org/2000/svg"><path d="M24.97.412c3.457 0 6.705.655 9.744 1.966 3.04 1.312 5.691 3.1 7.956 5.364 2.264 2.265 4.052 4.907 5.363 7.926C49.344 18.688 50 21.926 50 25.382c0 3.457-.656 6.704-1.967 9.744-1.31 3.04-3.099 5.691-5.363 7.956-2.265 2.264-4.917 4.052-7.956 5.363-3.04 1.311-6.287 1.967-9.744 1.967-3.456 0-6.694-.656-9.714-1.967-3.02-1.31-5.661-3.099-7.926-5.363-2.264-2.265-4.052-4.917-5.363-7.956C.656 32.086 0 28.839 0 25.382c0-3.456.656-6.694 1.967-9.714 1.31-3.02 3.099-5.661 5.363-7.926 2.265-2.265 4.907-4.052 7.926-5.364 3.02-1.31 6.258-1.966 9.714-1.966Zm9.416 10.906h-5.304c-1.033 0-1.986.178-2.86.536a7.721 7.721 0 0 0-2.295 1.43 6.47 6.47 0 0 0-1.52 2.027c-.357.754-.536 1.51-.536 2.264v3.159h-4.708v6.197h4.708v12.515h6.258V26.932h4.648v-6.198H28.13v-1.61c0-.476.188-.854.566-1.132.377-.278.705-.417.983-.417h4.708v-6.257Z" fill="#fff"/></svg>