<svg width="50" height="51" fill="none" xmlns="http://www.w3.org/2000/svg"><path d="M24.97.412c3.465 0 6.71.657 9.737 1.971s5.675 3.097 7.945 5.347c2.27 2.25 4.063 4.888 5.377 7.915S50 21.917 50 25.382s-.657 6.71-1.971 9.737c-1.315 3.027-3.107 5.675-5.377 7.945-2.27 2.27-4.918 4.062-7.945 5.377-3.026 1.314-6.272 1.97-9.737 1.97s-6.71-.656-9.737-1.97c-3.027-1.315-5.665-3.107-7.915-5.377-2.25-2.27-4.032-4.918-5.347-7.945C.657 32.093 0 28.847 0 25.382s.657-6.71 1.971-9.737C3.286 12.618 5.068 9.98 7.318 7.73c2.25-2.25 4.888-4.033 7.915-5.347S21.505.412 24.97.412Zm-7.766 18.757h-6.272V39.48h6.272V19.17Zm-3.166-1.613c.876 0 1.623-.298 2.24-.896.618-.597.926-1.334.926-2.21 0-.876-.308-1.613-.926-2.21-.617-.598-1.364-.896-2.24-.896-.876 0-1.613.299-2.21.896s-.896 1.334-.896 2.21c0 .876.299 1.613.896 2.21.597.598 1.334.896 2.21.896Zm25.03 10.156c0-1.434-.398-2.838-1.195-4.212-.796-1.374-1.832-2.42-3.106-3.136-1.155-.637-2.499-.976-4.032-1.015-1.534-.04-2.937.219-4.212.776v-.956h-6.212V39.48h6.212V27.055l2.629-1.255c.318-.16.746-.239 1.284-.239s.966.1 1.284.299c.24.12.478.378.717.777.24.398.359.756.359 1.075V39.48h6.272V27.712Z" fill="#fff"/></svg>