<svg width="30" height="31" fill="none" xmlns="http://www.w3.org/2000/svg"><path d="M14.982.412c2.079 0 4.026.394 5.842 1.183a15.433 15.433 0 0 1 4.767 3.208 15.06 15.06 0 0 1 3.226 4.749C29.606 11.368 30 13.315 30 15.394c0 2.079-.394 4.027-1.183 5.842a15.276 15.276 0 0 1-3.226 4.767 15.276 15.276 0 0 1-4.767 3.226c-1.816.789-3.763 1.183-5.842 1.183-2.079 0-4.026-.394-5.842-1.183a15.06 15.06 0 0 1-4.75-3.226 15.433 15.433 0 0 1-3.207-4.767C.394 19.42 0 17.474 0 15.395s.394-4.026 1.183-5.842a15.212 15.212 0 0 1 3.208-4.75A15.212 15.212 0 0 1 9.14 1.596C10.956.806 12.903.412 14.982.412Zm-4.66 11.255H6.56v12.186h3.764V11.667Zm-1.9-.968c.527 0 .975-.18 1.345-.538.37-.358.556-.8.556-1.326s-.186-.968-.556-1.326a1.862 1.862 0 0 0-1.344-.538c-.526 0-.968.18-1.326.538-.359.358-.538.8-.538 1.326s.18.968.538 1.326c.358.359.8.538 1.326.538Zm15.019 6.093c0-.86-.24-1.703-.717-2.527-.478-.824-1.1-1.452-1.864-1.882-.693-.382-1.5-.585-2.42-.609-.92-.024-1.761.132-2.526.466v-.573h-3.728v12.186h3.728v-7.455l1.577-.753c.191-.095.448-.143.77-.143.323 0 .58.06.771.179.144.072.287.227.43.466.144.239.215.454.215.645v7.061h3.764v-7.061Z" fill="#252525"/></svg>