<svg width="30" height="31" fill="none" xmlns="http://www.w3.org/2000/svg"><path d="M14.982.412c2.079 0 4.026.394 5.842 1.183a15.433 15.433 0 0 1 4.767 3.208 15.06 15.06 0 0 1 3.226 4.749C29.606 11.368 30 13.315 30 15.394c0 2.079-.394 4.027-1.183 5.842a15.276 15.276 0 0 1-3.226 4.767 15.276 15.276 0 0 1-4.767 3.226c-1.816.789-3.763 1.183-5.842 1.183-2.079 0-4.026-.394-5.842-1.183a15.06 15.06 0 0 1-4.75-3.226 15.433 15.433 0 0 1-3.207-4.767C.394 19.42 0 17.474 0 15.395s.394-4.026 1.183-5.842a15.212 15.212 0 0 1 3.208-4.75A15.212 15.212 0 0 1 9.14 1.596C10.956.806 12.903.412 14.982.412Zm7.455 11.756a8.642 8.642 0 0 0 1.828-1.9 7.706 7.706 0 0 1-2.115.573 4.143 4.143 0 0 0 1.004-.877 3.16 3.16 0 0 0 .61-1.129c-.359.191-.73.364-1.112.52a5.822 5.822 0 0 1-1.183.34 4.196 4.196 0 0 0-1.182-.824 3.472 3.472 0 0 0-1.506-.323 3.53 3.53 0 0 0-1.415.287 3.51 3.51 0 0 0-1.147.789c-.323.334-.58.722-.771 1.165a3.529 3.529 0 0 0-.287 1.415c0 .144.006.287.018.43.012.144.03.275.054.395a10.037 10.037 0 0 1-4.194-1.111 10.278 10.278 0 0 1-3.297-2.689 3.447 3.447 0 0 0-.502 1.828c0 .621.15 1.201.448 1.739.299.537.687.973 1.165 1.308-.621-.048-1.17-.203-1.649-.466v.036c0 .908.281 1.69.843 2.347a3.623 3.623 0 0 0 2.096 1.237 3.951 3.951 0 0 1-.484.108 3.179 3.179 0 0 1-.824.017 3.963 3.963 0 0 1-.34-.053 3.74 3.74 0 0 0 1.272 1.792c.61.478 1.32.717 2.133.717a7.2 7.2 0 0 1-4.982 1.56 5.305 5.305 0 0 1-.43-.055c.812.526 1.69.932 2.634 1.219.944.286 1.93.43 2.957.43 1.672 0 3.154-.317 4.444-.95s2.372-1.446 3.244-2.437a10.521 10.521 0 0 0 1.99-3.334c.453-1.23.68-2.443.68-3.638v-.466Z" fill="#252525"/></svg>