<svg width="50" height="51" fill="none" xmlns="http://www.w3.org/2000/svg"><path d="M24.97.412c3.465 0 6.71.657 9.737 1.971s5.675 3.097 7.945 5.347c2.27 2.25 4.063 4.888 5.377 7.915S50 21.917 50 25.382s-.657 6.71-1.971 9.737c-1.315 3.027-3.107 5.675-5.377 7.945-2.27 2.27-4.918 4.062-7.945 5.377-3.026 1.314-6.272 1.97-9.737 1.97s-6.71-.656-9.737-1.97c-3.027-1.315-5.665-3.107-7.915-5.377-2.25-2.27-4.032-4.918-5.347-7.945C.657 32.093 0 28.847 0 25.382s.657-6.71 1.971-9.737C3.286 12.618 5.068 9.98 7.318 7.73c2.25-2.25 4.888-4.033 7.915-5.347S21.505.412 24.97.412Zm12.425 19.594a14.405 14.405 0 0 0 3.047-3.166 12.833 12.833 0 0 1-3.525.956 6.912 6.912 0 0 0 1.673-1.464 5.261 5.261 0 0 0 1.016-1.882 19.64 19.64 0 0 1-1.852.866 9.71 9.71 0 0 1-1.971.568 6.994 6.994 0 0 0-1.972-1.374c-.756-.359-1.593-.538-2.509-.538a5.88 5.88 0 0 0-2.36.478 5.85 5.85 0 0 0-1.91 1.314 6.467 6.467 0 0 0-1.285 1.942 5.88 5.88 0 0 0-.478 2.36c0 .238.01.477.03.716.02.24.05.458.09.657-2.51-.12-4.84-.736-6.99-1.852a17.13 17.13 0 0 1-5.496-4.48 5.752 5.752 0 0 0-.836 3.047 5.87 5.87 0 0 0 .747 2.897 6.423 6.423 0 0 0 1.941 2.18c-1.035-.08-1.951-.338-2.748-.776v.06c0 1.513.468 2.817 1.404 3.912.936 1.096 2.1 1.783 3.495 2.061-.28.08-.548.14-.807.18a5.29 5.29 0 0 1-1.374.03 6.609 6.609 0 0 1-.567-.09 6.232 6.232 0 0 0 2.12 2.987c1.016.796 2.2 1.194 3.555 1.194a11.756 11.756 0 0 1-3.495 1.942 12.001 12.001 0 0 1-4.032.687 8.815 8.815 0 0 1-1.493-.12 17.292 17.292 0 0 0 4.39 2.031c1.573.478 3.216.717 4.928.717 2.788 0 5.257-.527 7.408-1.583 2.15-1.055 3.952-2.41 5.406-4.062a17.536 17.536 0 0 0 3.316-5.555c.756-2.051 1.134-4.073 1.134-6.064v-.776Z" fill="#fff"/></svg>